<?xml version="1.0" encoding="utf-8"?>
<!-- Generator: Adobe Illustrator 24.1.3, SVG Export Plug-In . SVG Version: 6.00 Build 0)  -->
<svg version="1.1" xmlns="http://www.w3.org/2000/svg" xmlns:xlink="http://www.w3.org/1999/xlink" x="0px" y="0px"
	 viewBox="0 0 1920 1080" style="enable-background:new 0 0 1920 1080;" xml:space="preserve">
<style type="text/css">
	.st0{fill:#E1E1E1;}
	.st1{fill:#FFFFFF;}
	.st2{fill:#ECECEC;}
	.st3{fill:none;stroke:#000000;stroke-width:0.75;stroke-miterlimit:10;}
	.st4{fill:#8B8BF2;}
	.st5{fill:#111926;}
	.st6{clip-path:url(#SVGID_2_);}
	.st7{fill:#203049;}
	.st8{fill:#FAFAFA;}
	.st9{fill:#1A2E35;}
	.st10{font-family:'MyriadPro-Regular';}
	.st11{font-size:45.0787px;}
	.st12{fill:#FE7E81;}
	.st13{opacity:0.18;}
	.st14{fill:none;stroke:#000000;stroke-miterlimit:10;}
	.st15{fill:#4C2D32;}
	.st16{fill:none;stroke:#EF656C;stroke-width:2;stroke-miterlimit:10;}
	.st17{fill:#EF656C;}
	.st18{fill:none;stroke:#232323;stroke-width:6;stroke-linecap:round;stroke-miterlimit:10;}
	.st19{fill:#911219;}
	.st20{fill:#232323;}
</style>
<g id="Fream_1_">
	<g>
		<g>
			<g>
				<polygon class="st0" points="1534.5,354.7 1383.7,356.5 1385,559.9 1535.8,559.1 				"/>
			</g>
		</g>
		<g>
			<g>
				<polygon class="st1" points="1523.7,364.3 1391.7,364.3 1392.9,547.9 1524.9,547.3 				"/>
			</g>
		</g>
		<g>
			<g>
				<polygon class="st2" points="1507.7,381.8 1414.1,383.6 1414.9,525.4 1507.5,524.1 				"/>
			</g>
		</g>
	</g>
</g>
<g id="Wheel_1_">
	<path class="st3" d="M1422.9,285.9c-0.1,0-0.2,0-0.2,0l-25.1-9.8c-0.2-0.1-0.3-0.2-0.4-0.4c-0.1-0.2-0.1-0.3,0-0.5l4.5-11.5
		c-3.2-2.4-6-5.2-8.6-8.2l-11.3,4.9c-0.3,0.1-0.7,0-0.9-0.3l-10.8-24.7c-0.1-0.2-0.1-0.3,0-0.5c0.1-0.2,0.2-0.3,0.4-0.4l11.3-4.9
		c-0.5-3.9-0.6-7.9-0.2-11.9l-11.5-4.5c-0.3-0.1-0.5-0.5-0.4-0.9l9.8-25.1c0.1-0.2,0.2-0.3,0.4-0.4c0.2-0.1,0.3-0.1,0.5,0l11.5,4.5
		c2.4-3.2,5.2-6,8.2-8.6l-4.9-11.3c-0.1-0.2-0.1-0.3,0-0.5c0.1-0.2,0.2-0.3,0.4-0.4l24.7-10.8c0.2-0.1,0.3-0.1,0.5,0
		c0.2,0.1,0.3,0.2,0.4,0.4l4.9,11.3c3.9-0.5,7.9-0.6,11.9-0.2l4.5-11.5c0.1-0.3,0.5-0.5,0.9-0.4l25.1,9.8c0.2,0.1,0.3,0.2,0.4,0.4
		c0.1,0.2,0.1,0.3,0,0.5l-4.5,11.5c3.2,2.4,6,5.2,8.6,8.2l11.3-4.9c0.3-0.1,0.7,0,0.9,0.3l10.8,24.7c0.1,0.2,0.1,0.3,0,0.5
		c-0.1,0.2-0.2,0.3-0.4,0.4l-11.3,4.9c0.5,3.9,0.6,7.9,0.2,11.9l11.5,4.5c0.2,0.1,0.3,0.2,0.4,0.4c0.1,0.2,0.1,0.3,0,0.5l-9.8,25.1
		c-0.1,0.3-0.5,0.5-0.9,0.4l-11.5-4.5c-2.4,3.2-5.2,6-8.2,8.6l4.9,11.3c0.1,0.2,0.1,0.3,0,0.5c-0.1,0.2-0.2,0.3-0.4,0.4l-24.7,10.8
		c-0.2,0.1-0.3,0.1-0.5,0c-0.2-0.1-0.3-0.2-0.4-0.4l-4.9-11.3c-3.9,0.5-7.9,0.6-11.9,0.2l-4.5,11.5c-0.1,0.2-0.2,0.3-0.4,0.4
		C1423.1,285.9,1423,285.9,1422.9,285.9z M1398.6,275l23.9,9.3l4.4-11.3c0.1-0.3,0.4-0.5,0.7-0.4c4.2,0.4,8.4,0.4,12.6-0.2
		c0.3,0,0.6,0.1,0.7,0.4l4.9,11.1l23.5-10.3l-4.9-11.1c-0.1-0.3,0-0.6,0.2-0.8c3.3-2.6,6.2-5.7,8.7-9.1c0.2-0.2,0.5-0.3,0.8-0.2
		l11.3,4.4l9.3-23.9l-11.3-4.4c-0.3-0.1-0.5-0.4-0.4-0.7c0.4-4.2,0.4-8.4-0.2-12.6c0-0.3,0.1-0.6,0.4-0.7l11.1-4.9l-10.3-23.5
		l-11.1,4.9c-0.3,0.1-0.6,0-0.8-0.2c-2.6-3.3-5.7-6.2-9.1-8.7c-0.2-0.2-0.3-0.5-0.2-0.8l4.4-11.3l-23.9-9.3l-4.4,11.3
		c-0.1,0.3-0.4,0.5-0.7,0.4c-4.2-0.4-8.4-0.4-12.6,0.2c-0.3,0-0.6-0.1-0.7-0.4l-4.9-11.1l-23.5,10.3l4.9,11.1c0.1,0.3,0,0.6-0.2,0.8
		c-3.3,2.6-6.2,5.7-8.7,9.1c-0.2,0.2-0.5,0.3-0.8,0.2l-11.3-4.4l-9.3,23.9l11.3,4.4c0.3,0.1,0.5,0.4,0.4,0.7
		c-0.4,4.2-0.4,8.4,0.2,12.6c0,0.3-0.1,0.6-0.4,0.7l-11.1,4.9l10.3,23.5l11.1-4.9c0.3-0.1,0.6,0,0.8,0.2c2.6,3.3,5.7,6.2,9.1,8.7
		c0.2,0.2,0.3,0.5,0.2,0.8L1398.6,275z M1433,251.3c-11.1,0-21.7-6.4-26.4-17.2c-6.4-14.5,0.3-31.5,14.8-37.9
		c14.5-6.4,31.5,0.3,37.9,14.8c6.4,14.5-0.3,31.5-14.8,37.9C1440.7,250.5,1436.8,251.3,1433,251.3z M1432.9,195.1
		c-3.7,0-7.4,0.7-11,2.3c-13.9,6.1-20.2,22.3-14.1,36.1c6.1,13.9,22.3,20.2,36.1,14.1c13.9-6.1,20.2-22.3,14.1-36.1
		C1453.6,201.2,1443.5,195.1,1432.9,195.1z"/>
</g>
<g id="Fream">
	<g>
		<g>
			<g>
				<polygon class="st0" points="436.5,145.7 285.7,147.5 287,350.9 437.8,350.1 				"/>
			</g>
		</g>
		<g>
			<g>
				<polygon class="st1" points="425.7,155.3 293.7,155.3 294.9,338.9 426.9,338.3 				"/>
			</g>
		</g>
		<g>
			<g>
				<polygon class="st2" points="409.7,172.8 316.1,174.6 316.9,316.4 409.5,315.1 				"/>
			</g>
		</g>
	</g>
</g>
<g id="Wheel">
	<path class="st3" d="M305.9,704.9c-0.1,0-0.2,0-0.2,0l-25.1-9.8c-0.2-0.1-0.3-0.2-0.4-0.4c-0.1-0.2-0.1-0.3,0-0.5l4.5-11.5
		c-3.2-2.4-6-5.2-8.6-8.2l-11.3,4.9c-0.3,0.1-0.7,0-0.9-0.3l-10.8-24.7c-0.1-0.2-0.1-0.3,0-0.5c0.1-0.2,0.2-0.3,0.4-0.4l11.3-4.9
		c-0.5-3.9-0.6-7.9-0.2-11.9l-11.5-4.5c-0.3-0.1-0.5-0.5-0.4-0.9l9.8-25.1c0.1-0.2,0.2-0.3,0.4-0.4c0.2-0.1,0.3-0.1,0.5,0l11.5,4.5
		c2.4-3.2,5.2-6,8.2-8.6l-4.9-11.3c-0.1-0.2-0.1-0.3,0-0.5s0.2-0.3,0.4-0.4l24.7-10.8c0.2-0.1,0.3-0.1,0.5,0
		c0.2,0.1,0.3,0.2,0.4,0.4l4.9,11.3c3.9-0.5,7.9-0.6,11.9-0.2l4.5-11.5c0.1-0.3,0.5-0.5,0.9-0.4l25.1,9.8c0.2,0.1,0.3,0.2,0.4,0.4
		c0.1,0.2,0.1,0.3,0,0.5l-4.5,11.5c3.2,2.4,6,5.2,8.6,8.2l11.3-4.9c0.3-0.1,0.7,0,0.9,0.3l10.8,24.7c0.1,0.2,0.1,0.3,0,0.5
		c-0.1,0.2-0.2,0.3-0.4,0.4l-11.3,4.9c0.5,3.9,0.6,7.9,0.2,11.9l11.5,4.5c0.2,0.1,0.3,0.2,0.4,0.4c0.1,0.2,0.1,0.3,0,0.5l-9.8,25.1
		c-0.1,0.3-0.5,0.5-0.9,0.4l-11.5-4.5c-2.4,3.2-5.2,6-8.2,8.6l4.9,11.3c0.1,0.2,0.1,0.3,0,0.5s-0.2,0.3-0.4,0.4l-24.7,10.8
		c-0.2,0.1-0.3,0.1-0.5,0c-0.2-0.1-0.3-0.2-0.4-0.4l-4.9-11.3c-3.9,0.5-7.9,0.6-11.9,0.2l-4.5,11.5c-0.1,0.2-0.2,0.3-0.4,0.4
		C306.1,704.9,306,704.9,305.9,704.9z M281.6,694l23.9,9.3L310,692c0.1-0.3,0.4-0.5,0.7-0.4c4.2,0.4,8.4,0.4,12.6-0.2
		c0.3,0,0.6,0.1,0.7,0.4l4.9,11.1l23.5-10.3l-4.9-11.1c-0.1-0.3,0-0.6,0.2-0.8c3.3-2.6,6.2-5.7,8.7-9.1c0.2-0.2,0.5-0.3,0.8-0.2
		l11.3,4.4l9.3-23.9l-11.3-4.4c-0.3-0.1-0.5-0.4-0.4-0.7c0.4-4.2,0.4-8.4-0.2-12.6c0-0.3,0.1-0.6,0.4-0.7l11.1-4.9L367,605.1
		l-11.1,4.9c-0.3,0.1-0.6,0-0.8-0.2c-2.6-3.3-5.7-6.2-9.1-8.7c-0.2-0.2-0.3-0.5-0.2-0.8l4.4-11.3l-23.9-9.3l-4.4,11.3
		c-0.1,0.3-0.4,0.5-0.7,0.4c-4.2-0.4-8.4-0.4-12.6,0.2c-0.3,0-0.6-0.1-0.7-0.4l-4.9-11.1l-23.5,10.3l4.9,11.1c0.1,0.3,0,0.6-0.2,0.8
		c-3.3,2.6-6.2,5.7-8.7,9.1c-0.2,0.2-0.5,0.3-0.8,0.2l-11.3-4.4l-9.3,23.9l11.3,4.4c0.3,0.1,0.5,0.4,0.4,0.7
		c-0.4,4.2-0.4,8.4,0.2,12.6c0,0.3-0.1,0.6-0.4,0.7l-11.1,4.9l10.3,23.5L276,673c0.3-0.1,0.6,0,0.8,0.2c2.6,3.3,5.7,6.2,9.1,8.7
		c0.2,0.2,0.3,0.5,0.2,0.8L281.6,694z M316,670.3c-11.1,0-21.7-6.4-26.4-17.2c-6.4-14.5,0.3-31.5,14.8-37.9
		c14.5-6.4,31.5,0.3,37.9,14.8c6.4,14.5-0.3,31.5-14.8,37.9C323.7,669.5,319.8,670.3,316,670.3z M315.9,614.1c-3.7,0-7.4,0.7-11,2.3
		c-13.9,6.1-20.2,22.3-14.1,36.1c6.1,13.9,22.3,20.2,36.1,14.1c13.9-6.1,20.2-22.3,14.1-36.1C336.6,620.2,326.5,614.1,315.9,614.1z"
		/>
</g>
<g id="Leaf_1_">
	<g>
		<g>
			<path class="st4" d="M1620.5,720.9c-14.8,7.7-25.1,5.4-28.9-2c-3.9-7.4,0.1-17.1,15-24.8c14.8-7.7,34.9-10.5,38.8-3.1
				C1649.2,698.3,1635.4,713.1,1620.5,720.9z"/>
			<g>
				<g>
					<path class="st5" d="M1481.3,868.1c4.7-13,10.2-25.7,16.6-37.9c6.3-12.2,13.4-24,21.3-35.2c7.8-11.2,16.3-21.9,25.5-32.1
						c9.3-10.2,19.2-19.9,29.7-28.9c10.4-8.9,21.5-17.2,33-24.6c1.5-1,3-1.9,4.5-2.9c0.8-0.5-0.1-1.4-0.8-0.9
						c-11.7,7.3-22.9,15.4-33.6,24.1c-10.6,8.8-20.7,18.2-30.1,28.3c-9.5,10.1-18.3,20.8-26.4,32.1c-8.1,11.3-15.5,23.1-22.1,35.4
						c-6.5,12.1-12.3,24.7-17.2,37.6c-0.6,1.6-1.2,3.2-1.8,4.8C1479.6,868.6,1481.1,868.8,1481.3,868.1L1481.3,868.1z"/>
				</g>
			</g>
		</g>
		<g>
			<path class="st4" d="M1540,837.5c-19-4.6-26.3-14.6-24-24.1c2.3-9.5,13.3-15,32.3-10.4c19,4.6,38.9,17.6,36.6,27.2
				C1582.7,839.7,1559.1,842.1,1540,837.5z"/>
			<g>
				<g>
					<path class="st5" d="M1508.2,811.7c16.3,2.5,32.4,6.4,48,11.8c0.9,0.3,1.2-0.8,0.3-1.1c-15.8-5.4-32-9.3-48.4-11.8
						C1507.2,810.4,1507.4,811.6,1508.2,811.7L1508.2,811.7z"/>
				</g>
			</g>
		</g>
		<g>
			<path class="st4" d="M1544.9,724.8c3.5,18-2.1,28.1-11.1,29.8c-9,1.8-18-5.5-21.5-23.5c-3.5-18-0.2-40,8.8-41.8
				C1530.1,687.7,1541.4,706.8,1544.9,724.8z"/>
			<g>
				<g>
					<path class="st5" d="M1537.7,769.7c1.8-17.2-2.8-34.1-7.4-50.5c-0.2-0.8-1.4,0.1-1.2,0.8c4.5,16.2,9.1,32.9,7.3,49.8
						C1536.4,770.8,1537.6,770.5,1537.7,769.7L1537.7,769.7z"/>
				</g>
			</g>
		</g>
		<g>
			<path class="st4" d="M1570,799.3c-18.1-3.2-25.4-12-23.8-21.1c1.6-9,11.5-14.8,29.6-11.7c18.1,3.2,37.4,14.2,35.8,23.2
				C1610,798.8,1588.1,802.5,1570,799.3z"/>
			<g>
				<g>
					<path class="st5" d="M1533.7,776.5c17.8,0.1,35.4,3,52.3,8.6c0.7,0.2,1-1.2,0.3-1.5c-17-5.6-34.7-8.5-52.6-8.6
						C1533,775,1532.8,776.5,1533.7,776.5L1533.7,776.5z"/>
				</g>
			</g>
		</g>
		<g>
			<path class="st4" d="M1583.2,701.9c-0.8,16.7-8,24.4-16.3,24c-8.4-0.4-14.7-8.7-13.9-25.4c0.8-16.7,8.5-35.4,16.9-35
				C1578.2,665.8,1584.1,685.2,1583.2,701.9z"/>
			<g>
				<g>
					<path class="st5" d="M1567.7,739c2.7-15.7,3.8-31.7,3-47.6c0-1-1.2-0.5-1.2,0.3c0.7,15.8-0.3,31.7-3,47.2
						C1566.4,739.9,1567.5,739.9,1567.7,739L1567.7,739z"/>
				</g>
			</g>
		</g>
		<g>
			<path class="st4" d="M1598.1,762.9c-16.7-1-24.3-8.3-23.7-16.7c0.5-8.4,8.9-14.6,25.6-13.6c16.7,1,35.3,9,34.8,17.3
				S1614.7,763.9,1598.1,762.9z"/>
			<g>
				<g>
					<path class="st5" d="M1556.5,750.4c17.1-3,34.5-3.6,51.7-1.7c4.9,0.5,9.7,1.3,14.5,2.2c0.9,0.2,1-0.9,0.1-1.1
						c-17.1-3.3-34.6-4.1-51.8-2.5c-4.9,0.5-9.9,1.1-14.8,2C1555.3,749.4,1555.7,750.5,1556.5,750.4L1556.5,750.4z"/>
				</g>
			</g>
		</g>
		<g>
			<path class="st4" d="M1513.4,759.5c5.4,18.8,0.4,30-9.1,32.7c-9.4,2.7-19.7-4.1-25.1-22.9c-5.4-18.8-3.9-42.5,5.5-45.2
				C1494.2,721.4,1508,740.7,1513.4,759.5z"/>
			<g>
				<g>
					<path class="st5" d="M1494.4,755.9c6.7,17.1,11,35.1,12.7,53.4c0.1,0.7,1.5,0.9,1.5,0.1c-1.7-18.4-6.1-36.5-12.8-53.7
						C1495.5,755,1494.1,755.1,1494.4,755.9L1494.4,755.9z"/>
				</g>
			</g>
		</g>
	</g>
</g>
<g id="Leaf">
	<g>
		<g>
			<path class="st4" d="M1475.6,728.2c-0.3,1.1-0.6,2.1-1,3.2c-5.6,16.7-14.9,22.9-23.3,20.8c-0.3-0.1-0.7-0.2-1-0.3
				c-8.7-2.9-13-13.6-7.1-31c5.8-17.4,19.5-34.9,28.2-32C1479.5,691.6,1480.3,711.4,1475.6,728.2z"/>
			<g>
				<g>
					<path class="st5" d="M1445.5,775.5c3.4-18.1,6.8-36.5,14.8-53.3c0.3-0.6-0.6-1.8-1-0.9c-8,16.9-11.5,35.4-14.9,53.6
						C1444.2,775.7,1445.3,776.5,1445.5,775.5L1445.5,775.5z"/>
				</g>
			</g>
		</g>
		<g>
			<path class="st4" d="M1392.7,669.2c10.8,12.8,10.7,23.3,4.3,28.7c-6.4,5.4-16.7,3.6-27.5-9.2c-10.8-12.8-17.9-31.8-11.5-37.2
				S1381.9,656.4,1392.7,669.2z"/>
			<g>
				<g>
					<path class="st5" d="M1468.2,855.6c-3.7-25.2-10.4-49.9-20-73.6c-9.5-23.4-21.7-45.7-36.4-66.2c-8.4-11.7-17.5-22.8-27.4-33.2
						c-0.7-0.7-1.3,0.4-0.7,1c17.4,18.4,32.5,38.8,45,60.8c12.5,21.9,22.4,45.3,29.4,69.5c4,13.7,7,27.6,9,41.7
						C1467.2,856.3,1468.4,856.6,1468.2,855.6L1468.2,855.6z"/>
				</g>
			</g>
		</g>
		<g>
			<path class="st4" d="M1438.5,682c-2.6,16.5-10.6,23.4-18.9,22c-8.3-1.3-13.7-10.3-11.1-26.8c2.6-16.5,12.3-34.3,20.6-33
				C1437.4,645.6,1441.1,665.5,1438.5,682z"/>
			<g>
				<g>
					<path class="st5" d="M1419,725.3c-2.4-20-0.2-40.4,6.5-59.4c0.3-0.7-0.7-1.7-1-0.7c-5.3,15.1-7.9,31.2-7.5,47.2
						c0.1,4.5,0.4,9,1,13.4C1418.1,726.6,1419.1,726.1,1419,725.3L1419,725.3z"/>
				</g>
			</g>
		</g>
		<g>
			<path class="st4" d="M1389.9,745c18.3-0.3,27.2,7.1,27.4,16.2c0.1,9.2-8.5,16.7-26.9,17c-18.3,0.3-39.4-6.9-39.5-16.1
				C1350.7,753,1371.5,745.3,1389.9,745z"/>
			<g>
				<g>
					<path class="st5" d="M1381.6,759.7c9.9-1.6,20.1-2.2,30-0.4c7.5,1.4,14.6,4.2,21.3,7.8c3.5,1.9,6.9,4.1,10.3,6.2
						c0.7,0.4,1.7-0.3,0.9-0.9c-6.2-4-12.5-7.8-19.4-10.6c-7.9-3.2-16.3-4.7-24.7-4.9c-6.3-0.1-12.5,0.5-18.7,1.5
						C1380.4,758.8,1380.8,759.9,1381.6,759.7L1381.6,759.7z"/>
				</g>
			</g>
		</g>
		<g>
			<path class="st4" d="M1407.6,792.5c19.5-1.8,29.6,5.3,30.4,15.1c0.9,9.8-7.7,18.5-27.3,20.3c-19.5,1.8-42.5-4.1-43.4-13.9
				C1366.5,804.2,1388.1,794.3,1407.6,792.5z"/>
			<g>
				<g>
					<path class="st5" d="M1403.2,808.7c9.5-0.6,19.2-0.3,28.5,1.9c4.2,1,8.2,2.4,12,4.5c3.7,2.1,7,4.7,10,7.6
						c3.3,3.2,6.2,6.7,8.8,10.5c0.4,0.6,1.7-0.2,1.2-0.8c-4.7-6.9-10.6-13.2-17.8-17.6c-7.7-4.7-16.8-6.5-25.7-7.2
						c-5.5-0.4-11.1-0.4-16.6-0.1C1402.7,807.5,1402.2,808.7,1403.2,808.7L1403.2,808.7z"/>
				</g>
			</g>
		</g>
		<g>
			<path class="st4" d="M1375.2,704.6c16.7,0.8,24.4,7.9,24,16.3c-0.4,8.4-8.7,14.8-25.4,14c-16.7-0.8-35.5-8.4-35.1-16.8
				C1339.1,709.8,1358.5,703.9,1375.2,704.6z"/>
			<g>
				<g>
					<path class="st5" d="M1365.9,718.5c17.1-1.4,34.8,4.7,49.2,13.7c3.9,2.5,7.7,5.2,11.1,8.3c0.6,0.5,1.5-0.6,1-1.1
						c-12.8-11.5-29.7-19.2-46.8-21.7c-4.7-0.7-9.4-0.9-14.1-0.5C1365.7,717.2,1365.1,718.6,1365.9,718.5L1365.9,718.5z"/>
				</g>
			</g>
		</g>
	</g>
</g>
<g id="Pot">
	<g>
		<path class="st5" d="M1552.5,846.5h-140.7c-21.1,22-34.4,51.9-34.4,79.4c0,34.6,20.9,56.7,51.9,67.7h105.7
			c31-10.9,51.9-33.1,51.9-67.7C1586.9,898.4,1573.7,868.4,1552.5,846.5z"/>
		<g>
			<defs>
				<path id="SVGID_1_" d="M1552.5,846.5h-140.7c-21.1,22-34.4,51.9-34.4,79.4c0,34.6,20.9,56.7,51.9,67.7h105.7
					c31-10.9,51.9-33.1,51.9-67.7C1586.9,898.4,1573.7,868.4,1552.5,846.5z"/>
			</defs>
			<clipPath id="SVGID_2_">
				<use xlink:href="#SVGID_1_"  style="overflow:visible;"/>
			</clipPath>
			<g class="st6">
				<g>
					<g>
						<path class="st1" d="M1375,907.9c7.3-11.6,21.8-14.8,34.7-13.4c16.2,1.8,30.2,11.4,44.2,18.9c7.7,4.1,15.7,7.7,24.2,9.9
							c8.5,2.3,17.4,3.4,26.2,3.4c17.5,0.1,34.9-3.8,51.1-10.6c15.8-6.6,30.5-15.9,44-26.4c1.7-1.3,3.3-2.6,5-4
							c1.4-1.2-1-2.6-2.1-1.6c-13.3,11-27.7,20.7-43.4,27.9c-15.9,7.3-33.2,12-50.8,12.4c-8.8,0.2-17.7-0.6-26.3-2.6
							c-8.6-2-16.7-5.4-24.5-9.4c-14.4-7.5-28.5-17.4-44.9-19.9c-12.9-1.9-27.8,0.2-37,10.3c-1.1,1.2-2,2.5-2.9,3.8
							C1371.5,908.1,1374.3,909.1,1375,907.9L1375,907.9z"/>
					</g>
				</g>
				<g>
					<g>
						<path class="st1" d="M1357.5,938.3c15.1-13.4,35.6-20,55.7-18.4c20.4,1.6,37.9,12.7,54.7,23.4c8.5,5.3,17,10.7,26.1,14.8
							c9.2,4.2,18.9,7,29,7.7c21.1,1.4,42.3-5.6,59.1-18.2c16.2-12.1,28.4-29,36.2-47.5c1-2.3,1.9-4.7,2.7-7c0.2-0.7,0.2-1.6-0.4-2
							c-0.6-0.4-1.3-0.1-1.5,0.6c-6.8,19-18.1,36.7-33.6,49.8c-16,13.5-36.5,21.7-57.6,21.6c-10.4,0-20.5-2.3-30-6.3
							c-9.2-3.8-17.7-9-26.1-14.3c-16.7-10.5-33.5-21.9-53.4-24.9c-19.6-3-40.3,2-56.4,13.6c-2,1.4-3.9,3-5.8,4.6
							C1355.3,936.6,1356.2,939.4,1357.5,938.3L1357.5,938.3z"/>
					</g>
				</g>
			</g>
		</g>
	</g>
</g>
<g id="Pad">
	<g>
		<rect x="744.1" y="126.9" class="st7" width="564.5" height="773.5"/>
	</g>
	<g>
		<polygon class="st0" points="1286.3,854.4 1181.7,854.4 791.1,854.4 791.1,158.2 1286.3,158.2 1286.3,767.7 		"/>
	</g>
	<g>
		<polygon class="st2" points="1278.4,841.4 1174.8,841.4 787.8,841.4 787.8,148.9 1278.4,148.9 1278.4,755.3 		"/>
	</g>
	<g>
		<g>
			<polygon class="st8" points="1225.7,787.5 1169.2,833.6 778.6,833.6 778.6,150.7 1273.7,150.7 1273.7,748.6 			"/>
		</g>
		<g>
			<g>
				<path class="st9" d="M1225.7,787.5c0,0,1-0.9,3-2.5c2-1.7,5.1-4.1,9.1-7.4c8-6.5,20-16.3,35.8-29.2l-0.1,0.1
					c-0.1-98.2-0.2-316.5-0.4-597.9l0.5,0.5c-147.4,0-314.5,0-490.8,0.1c-1.5,0-2.9,0-4.3,0l0.6-0.6c0,256.7-0.1,493.6-0.1,682.9
					l-0.5-0.5c178.3,0.1,315.3,0.2,390.6,0.3l-0.1,0c18.8-15.3,33-26.8,42.4-34.4c4.7-3.8,8.3-6.7,10.6-8.6
					C1224.5,788.5,1225.7,787.5,1225.7,787.5s-1.2,1-3.5,2.9c-2.4,1.9-5.9,4.8-10.6,8.7c-9.4,7.7-23.5,19.2-42.3,34.6l-0.1,0h-0.1
					c-75.3,0.1-212.3,0.2-390.6,0.3l-0.5,0l0-0.5c0-189.3-0.1-426.1-0.1-682.9v-0.6h0.6c1.4,0,2.9,0,4.3,0
					c176.3,0,343.4,0,490.8,0.1h0.5l0,0.5c-0.2,281.5-0.3,499.7-0.4,597.9v0.1l-0.1,0.1c-15.9,12.8-27.9,22.5-36,29
					c-4,3.2-7.1,5.7-9.1,7.3C1226.8,786.7,1225.7,787.5,1225.7,787.5z"/>
			</g>
		</g>
	</g>
	<g>
		<path class="st4" d="M1127.7,172.4H925v-54.7c0-8.2,6.6-14.8,14.8-14.8h173.7c7.8,0,14.2,6.3,14.2,14.2V172.4z"/>
	</g>
	<g>
		<path class="st2" d="M913.8,342.9h-83.4v-83.4h83.4V342.9z M832.7,340.6h78.8v-78.8h-78.8V340.6z"/>
	</g>
	<g>
		<path class="st2" d="M913.8,471.5h-83.4v-83.4h83.4V471.5z M832.7,469.1h78.8v-78.8h-78.8V469.1z"/>
	</g>
	<g>
		<path class="st2" d="M913.8,595.9h-83.4v-83.4h83.4V595.9z M832.7,593.5h78.8v-78.8h-78.8V593.5z"/>
	</g>
	<g>
		<path class="st2" d="M913.8,716h-83.4v-83.4h83.4V716z M832.7,713.7h78.8v-78.8h-78.8V713.7z"/>
	</g>
	<g>
		<polygon class="st0" points="1184.7,720.5 1130.4,832.9 1169.2,832.9 		"/>
	</g>
	<g>
		<g>
			<polygon class="st8" points="1169.2,833.6 1184.7,721.1 1273.7,748.6 			"/>
		</g>
		<g>
			<g>
				<path class="st9" d="M1169.2,833.6c2.2-1.8,11.8-9.7,29.9-24.6c18.6-15.2,44.6-36.5,74.2-60.8l0.2,1c-11-3.4-22.6-7-34.4-10.6
					c-19.3-6-37.8-11.7-54.6-16.9l0.7-0.5c-4.7,32.7-8.6,60.6-11.5,80.5C1171,821.1,1169.6,831,1169.2,833.6c0,0,0-0.2,0.1-0.5
					c0.1-0.4,0.1-0.9,0.2-1.6c0.2-1.5,0.5-3.5,0.8-6.1c0.7-5.5,1.8-13.3,3.1-23.2c2.7-20,6.5-48.2,10.9-81.2l0.1-0.7l0.6,0.2
					c16.9,5.2,35.4,10.9,54.7,16.8c11.8,3.6,23.3,7.2,34.4,10.6l1.1,0.3l-0.9,0.7c-30,24.2-56.3,45.4-75.1,60.6
					c-9.3,7.5-16.8,13.5-21.9,17.6c-2.5,2-4.5,3.6-5.9,4.7c-0.6,0.5-1.1,0.9-1.5,1.2C1169.4,833.5,1169.2,833.6,1169.2,833.6z"/>
			</g>
		</g>
	</g>
	<circle class="st4" cx="1026.2" cy="91.9" r="35.9"/>
	<circle class="st1" cx="1026.8" cy="91.3" r="12.5"/>
</g>
<g id="Text">
	<text transform="matrix(1.2022 0 0 1 927.125 233.1724)" class="st4 st10 st11">CHECKLIST</text>
</g>
<g id="Mark">
	<g>
		<polygon class="st4" points="847,431.5 858.1,419.6 876.5,434.3 918.8,393.3 928.9,405.3 875.7,457.7 		"/>
	</g>
	<g>
		<polygon class="st4" points="847,304 858.1,292.1 876.5,306.9 918.8,265.8 928.9,277.8 875.7,330.2 		"/>
	</g>
	<g>
		<polygon class="st4" points="847,555.9 858.1,544 876.5,558.8 918.8,517.7 928.9,529.7 875.7,582.1 		"/>
	</g>
	<g>
		<polygon class="st4" points="847,676 858.1,664.1 876.5,678.9 918.8,637.9 928.9,649.8 875.7,702.2 		"/>
	</g>
</g>
<g id="Line">
	<g>
		<g>
			<path class="st9" d="M1208.6,279.6c0,0.3-58.1,0.6-129.7,0.6c-71.6,0-129.7-0.3-129.7-0.6c0-0.3,58.1-0.6,129.7-0.6
				C1150.5,279,1208.6,279.3,1208.6,279.6z"/>
		</g>
	</g>
	<g>
		<g>
			<path class="st9" d="M1208.6,297c0,0.3-58.1,0.6-129.7,0.6c-71.6,0-129.7-0.3-129.7-0.6c0-0.3,58.1-0.6,129.7-0.6
				C1150.5,296.4,1208.6,296.6,1208.6,297z"/>
		</g>
	</g>
	<g>
		<g>
			<path class="st9" d="M1208.6,314.3c0,0.3-58.1,0.6-129.7,0.6c-71.6,0-129.7-0.3-129.7-0.6c0-0.3,58.1-0.6,129.7-0.6
				C1150.5,313.7,1208.6,314,1208.6,314.3z"/>
		</g>
	</g>
	<g>
		<g>
			<path class="st9" d="M1208.6,331.6c0,0.3-58.1,0.6-129.7,0.6c-71.6,0-129.7-0.3-129.7-0.6c0-0.3,58.1-0.6,129.7-0.6
				C1150.5,331,1208.6,331.3,1208.6,331.6z"/>
		</g>
	</g>
	<g>
		<g>
			<path class="st9" d="M1208.6,408.2c0,0.3-58.1,0.6-129.7,0.6c-71.6,0-129.7-0.3-129.7-0.6c0-0.3,58.1-0.6,129.7-0.6
				C1150.5,407.6,1208.6,407.9,1208.6,408.2z"/>
		</g>
	</g>
	<g>
		<g>
			<path class="st9" d="M1208.6,425.5c0,0.3-58.1,0.6-129.7,0.6c-71.6,0-129.7-0.3-129.7-0.6s58.1-0.6,129.7-0.6
				C1150.5,424.9,1208.6,425.2,1208.6,425.5z"/>
		</g>
	</g>
	<g>
		<g>
			<path class="st9" d="M1208.6,442.9c0,0.3-58.1,0.6-129.7,0.6c-71.6,0-129.7-0.3-129.7-0.6c0-0.3,58.1-0.6,129.7-0.6
				C1150.5,442.3,1208.6,442.5,1208.6,442.9z"/>
		</g>
	</g>
	<g>
		<g>
			<path class="st9" d="M1208.6,460.2c0,0.3-58.1,0.6-129.7,0.6c-71.6,0-129.7-0.3-129.7-0.6c0-0.3,58.1-0.6,129.7-0.6
				C1150.5,459.6,1208.6,459.9,1208.6,460.2z"/>
		</g>
	</g>
	<g>
		<g>
			<path class="st9" d="M1208.6,532.6c0,0.3-58.1,0.6-129.7,0.6c-71.6,0-129.7-0.3-129.7-0.6s58.1-0.6,129.7-0.6
				C1150.5,532,1208.6,532.3,1208.6,532.6z"/>
		</g>
	</g>
	<g>
		<g>
			<path class="st9" d="M1208.6,549.9c0,0.3-58.1,0.6-129.7,0.6c-71.6,0-129.7-0.3-129.7-0.6c0-0.3,58.1-0.6,129.7-0.6
				C1150.5,549.3,1208.6,549.6,1208.6,549.9z"/>
		</g>
	</g>
	<g>
		<g>
			<path class="st9" d="M1208.6,567.3c0,0.3-58.1,0.6-129.7,0.6c-71.6,0-129.7-0.3-129.7-0.6c0-0.3,58.1-0.6,129.7-0.6
				C1150.5,566.7,1208.6,566.9,1208.6,567.3z"/>
		</g>
	</g>
	<g>
		<g>
			<path class="st9" d="M1208.6,584.6c0,0.3-58.1,0.6-129.7,0.6c-71.6,0-129.7-0.3-129.7-0.6c0-0.3,58.1-0.6,129.7-0.6
				C1150.5,584,1208.6,584.3,1208.6,584.6z"/>
		</g>
	</g>
	<g>
		<g>
			<path class="st9" d="M1208.6,652.7c0,0.3-58.1,0.6-129.7,0.6c-71.6,0-129.7-0.3-129.7-0.6s58.1-0.6,129.7-0.6
				C1150.5,652.1,1208.6,652.4,1208.6,652.7z"/>
		</g>
	</g>
	<g>
		<g>
			<path class="st9" d="M1208.6,670.1c0,0.3-58.1,0.6-129.7,0.6c-71.6,0-129.7-0.3-129.7-0.6c0-0.3,58.1-0.6,129.7-0.6
				C1150.5,669.4,1208.6,669.7,1208.6,670.1z"/>
		</g>
	</g>
	<g>
		<g>
			<path class="st9" d="M1208.6,687.4c0,0.3-58.1,0.6-129.7,0.6c-71.6,0-129.7-0.3-129.7-0.6s58.1-0.6,129.7-0.6
				C1150.5,686.8,1208.6,687.1,1208.6,687.4z"/>
		</g>
	</g>
	<g>
		<g>
			<path class="st9" d="M1208.6,704.7c0,0.3-58.1,0.6-129.7,0.6c-71.6,0-129.7-0.3-129.7-0.6s58.1-0.6,129.7-0.6
				C1150.5,704.1,1208.6,704.4,1208.6,704.7z"/>
		</g>
	</g>
</g>
<g id="LHand">
	<g>
		<path class="st12" d="M470.8,376.2l-16.3,20c-9.6,11.9-8.1,29.2,3.4,39.3l0,0c12,10.5,30.3,9,40.5-3.2l19.9-24L470.8,376.2z"/>
		<g>
			<path class="st4" d="M587.1,349.7l-7,6.5l-66.4,65.6l-56.3-41.6l45.6-55.9c0,0,16.5-26.9,56.8-17.4
				C600.1,316.4,587.1,349.7,587.1,349.7z"/>
			<path class="st13" d="M491.7,405.5l46.6-100.4c0,0,66.1,0.1,42.1,51.1C502.1,429.7,520.2,425.9,491.7,405.5z"/>
		</g>
		<path class="st12" d="M448.2,409c0,0-6.2,24.9,64.5,82.6l12.5,11.8l20.1-18.8c0,0-51.1-89.7-64.7-76.6
			C480.5,407.9,470.7,396.7,448.2,409z"/>
	</g>
</g>
<g id="R_Leg">
	<path class="st7" d="M576.9,542.5l39.9,230.5l78.8-4.9l-17.3-231.3c0,0-25.8-36.2-58.1-25.5C587.8,522,576.9,542.5,576.9,542.5z"/>
	<path d="M689.6,933.6l18,24l33,7c0,0,66,27-33,27h-51.7c-8.7,0-15.4-7.6-14.4-16.2l6.1-50.8L689.6,933.6z"/>
	<path class="st7" d="M613.7,755.6L636.4,948l71.1,0l-13.3-197.7c0,0-13.5-31-44.7-26S613.7,755.6,613.7,755.6z"/>
</g>
<g id="lLeg">
	<path class="st7" d="M507.9,537.5l-47.1,221.8l89.7,13.7l54.6-188.6c0,0-7.5-58.1-43.1-60.3C526.5,521.9,507.9,537.5,507.9,537.5z"
		/>
	<path d="M483.6,926.6l5.5,51c0.8,7.8-4.9,14.8-12.7,15.4c-15.6,1.3-39.6,2.5-48.7-1.4c-14-6-7-17-7-17l27-48H483.6z"/>
	<path class="st7" d="M552.7,764.7L489.8,948l-61.8-6l32.8-182.7c0,0,8.2-35,39.4-35C531.4,724.3,559.8,743.9,552.7,764.7z"/>
</g>
<g id="LBody">
	<path class="st7" d="M516.1,505.3c0,0-16.2,41.5-6.2,68.3l79.6,34.8l91.3-41.9l-2.7-55.5L516.1,505.3z"/>
</g>
<g id="Neck">
	<path class="st12" d="M637.1,275.5c0,0-11.4,16.1-6.9,37l-56.1-19.6l16.7-43.9L637.1,275.5z"/>
</g>
<g id="Body">
	<g>
		<path class="st4" d="M684.8,417.7c13.7-4.9,17.5-33.9,17.5-33.9L681,316c-65.6-23-153.1-9.3-153.1-9.3s-16.7,9-13.9,33.1
			c2.7,24.1,7.7,147.1-0.5,177.2l165.7,0l-10-63.8L684.8,417.7z"/>
		<path class="st4" d="M638.6,312.4l-76.6,0v-9.9c0-7.2,5.8-13.1,13.1-13.1l52.8,0c5.9,0,10.7,4.8,10.7,10.7V312.4z"/>
		<line class="st14" x1="597.3" y1="305.1" x2="639.1" y2="305.6"/>
		<polygon class="st13" points="685.1,416.3 660.5,397.7 672.8,444.2 		"/>
	</g>
</g>
<g id="R_Arm">
	<g>
		<path class="st12" d="M766.9,448.3c-6,10.4-24-0.6-24-0.6l-36.7-27.3l31.7-40.5l34.6,31.2C772.5,411.2,784.9,428.6,766.9,448.3"/>
		<path class="st4" d="M686.7,318l14.5,13l48.7,48l-27.1,61.4l-60.7-41.1c0,0-26.3-16.9-15.3-55.5C657.7,305.3,686.7,318,686.7,318z
			"/>
	</g>
</g>
<g id="R_Hand">
	<path class="st12" d="M759,453c0,0,25.5-3,54.6-89.5l6.6-15.8c-2.7-11.9-5.3-23.9-21.9-12.1c0,0-68.6,79.5-51.6,87.6
		C746.6,423.1,739.6,436.3,759,453z"/>
	<path class="st12" d="M795.7,340.7l9.2-33.6l31.1-25.3c0,0,4.9,2.9-5.8,12.2l-6.3,7.8l12.2,0c0,0,18,17.5,13.1,22.9
		c0,0-1,2.9-4.4,1.5c-3.4-1.5-3.4-1.5-3.4-1.5s-14.1,17-20.4,22.9C816.7,351.5,806.9,353.3,795.7,340.7z"/>
</g>
<g id="Face">
	<g>
		<path class="st15" d="M634.6,283.6c0,0-18-6.3-21.8-28.3l25.5,18L634.6,283.6z"/>
		<path class="st12" d="M652.7,228.6l10.8,13.5c1.1,1.4,0.4,3.6-1.4,4l-8.9,2.2l-3.3-19.2"/>
		<path class="st12" d="M634.6,189.3c0,0,16.9,16,18,39.3c0,0,13.2,41.6,2.2,49.1c0,0-9.3,6.3-24.6,5.1S607,256.6,602.5,247
			c-4.5-9.6-11.4-33.9,6.1-47.2S611.2,192.8,634.6,189.3z"/>
		<path d="M644,194.3c0,0-3.4,62.8-59.6,81.8c0,0-23.6-6.2-27.3-47.1c-0.8-8.5,3.3-17.4,7.8-24.7C574.3,189.2,619.7,176.2,644,194.3
			z"/>
		
			<ellipse transform="matrix(0.9858 -0.1681 0.1681 0.9858 -32.3192 107.2125)" class="st12" cx="617.2" cy="244.5" rx="8.8" ry="13.5"/>
		<path class="st16" d="M639.1,282.7c0,0-15.3,4.2-27.8-16.5"/>
		<g>
			<g>
				<path class="st17" d="M622.1,241.6c-0.9-1.5-2.3-2.8-3.9-3.6c-1.8-0.8-3.6-1.1-5.5-0.8c-0.8,0.1-1.3,1.1-1,1.8
					c0.3,0.9,1,1.2,1.8,1c-0.2,0-0.2,0,0,0c0.1,0,0.2,0,0.3,0c0.2,0,0.3,0,0.5,0c0.2,0,0.3,0,0.5,0c0,0,0.4,0,0.1,0
					c-0.2,0,0.1,0,0.1,0c0.3,0.1,0.7,0.1,1,0.3c0.2,0.1,0.3,0.1,0.5,0.2c0.3,0.1-0.2-0.1,0,0c0.1,0,0.2,0.1,0.3,0.1
					c0.3,0.1,0.6,0.3,0.9,0.5c0.1,0.1,0.2,0.1,0.2,0.2c0.2,0.2,0.1,0,0,0c0.1,0,0.3,0.3,0.4,0.3c0.3,0.2,0.5,0.5,0.7,0.8
					c0.2,0.2-0.1-0.1,0,0c0.1,0.1,0.1,0.2,0.2,0.2c0.1,0.2,0.2,0.3,0.3,0.5c0.4,0.7,1.4,1,2.1,0.5
					C622.2,243.2,622.5,242.3,622.1,241.6L622.1,241.6z"/>
			</g>
		</g>
		<g>
			<g>
				<path class="st17" d="M623.6,245c-0.1-2.7-2.4-5-5.1-5.2c-2.6-0.2-5.1,1.9-5.6,4.4c-0.1,0.8,0.2,1.7,1,1.8
					c0.7,0.2,1.7-0.2,1.8-1c0-0.2,0.1-0.4,0.2-0.6c0.1-0.3-0.1,0.3,0,0c0.1-0.1,0.1-0.2,0.2-0.3c0.1-0.1,0.1-0.2,0.2-0.3
					c0.2-0.3-0.2,0.2,0,0c0.1-0.2,0.3-0.3,0.5-0.5c0.2-0.2-0.2,0.1,0,0c0.1-0.1,0.2-0.1,0.3-0.2c0.1-0.1,0.2-0.1,0.3-0.1
					c0.2-0.1-0.2,0.1,0,0c0.2-0.1,0.4-0.1,0.6-0.2c0.1,0,0.1,0-0.1,0c0.1,0,0.1,0,0.2,0c0.1,0,0.2,0,0.3,0c0.1,0,0.2,0,0.3,0
					c-0.2,0-0.2,0-0.1,0c0,0,0.1,0,0.1,0c0.1,0,0.2,0.1,0.3,0.1c0.1,0,0.1,0,0.2,0.1c-0.1,0-0.1,0-0.2-0.1c0,0.1,0.5,0.3,0.6,0.3
					c0.3,0.2-0.2-0.2,0,0c0.1,0.1,0.2,0.1,0.2,0.2c0.1,0.1,0.1,0.2,0.2,0.2c0.2,0.2-0.1-0.2,0,0c0.1,0.2,0.2,0.4,0.3,0.6
					c0.1,0.3-0.1-0.3,0,0c0,0.1,0.1,0.2,0.1,0.3c0,0.1,0,0.2,0.1,0.3c0,0.1,0,0.1,0-0.1c0,0.1,0,0.1,0,0.2c0,0.8,0.7,1.5,1.5,1.5
					C622.8,246.5,623.6,245.8,623.6,245L623.6,245z"/>
			</g>
		</g>
		<path class="st18" d="M651.1,223c0,0-4.1-0.8-6.6,5"/>
		<polygon class="st19" points="658.5,254.2 656.3,254.5 659.1,259.6 		"/>
		<g>
			<g>
				<path class="st1" d="M589.4,273.5c-0.9-3.9-4.2-7.2-8.2-7.7c-3.9-0.4-7.9,2.1-8.9,5.9c-0.5,1.9,2.4,2.7,2.9,0.8
					c0.7-2.4,3.4-4,5.8-3.7c2.8,0.4,4.9,2.8,5.5,5.5C586.9,276.2,589.8,275.4,589.4,273.5L589.4,273.5z"/>
			</g>
		</g>
	</g>
	<path d="M584.9,310.7c-1.5,4.9-3.5,9.6-6,14c-8.4,14.8-23.4,25.7-40.1,29.1c-0.9,0.2-1.9,0.3-2.7-0.2c-0.6-0.4-0.9-1.1-1.2-1.7
		c-1.8-4.8-1-10.2,0.1-15.2c4.9-22.6,16.5-43.6,32.9-59.9c6.8-6.8,15.8-16.1,19.6-2.6C590.7,285.3,588.2,300,584.9,310.7z"/>
</g>
<g id="Eyes">
	<path class="st20" d="M652.2,231.6c0,1.6-0.7,3-1.6,3c-0.9,0-1.7-1.3-1.7-2.9c0-1.6,0.7-3,1.6-3C651.4,228.6,652.2,230,652.2,231.6
		z"/>
</g>
<g id="L:ine">
	<line class="st9" x1="140.6" y1="994" x2="1827.2" y2="992"/>
</g>
</svg>
